<svg height="74" viewBox="0 0 334 74" fill="none" color="#002d41" xmlns="http://www.w3.org/2000/svg">
<path d="M8.85305 33.4171C8.85305 37.5623 10.935 39.5505 18.944 42.2889C29.4851 46.0402 34.118 50.2979 34.118 58.4945C34.118 68.004 26.6154 73.4997 17.331 73.4997C11.4977 73.4997 8.10279 71.3239 5.17678 71.3239C4.35663 71.3667 3.55484 71.5827 2.8242 71.9577C2.09357 72.3327 1.45066 72.8582 0.937822 73.4997L0 55.681H0.187565C4.5203 65.6782 10.2598 71.7929 17.2372 71.7929C18.248 71.8695 19.2635 71.729 20.2156 71.3809C21.1677 71.0328 22.0343 70.4851 22.7572 69.7745C23.4802 69.0639 24.0429 68.207 24.4075 67.2611C24.7721 66.3152 24.9301 65.3023 24.871 64.2903C24.871 59.3948 21.2886 57.7067 14.7051 55.2496C4.80165 51.761 0.37513 47.522 0.37513 39.3254C0.37513 30.7537 7.25874 25.2769 15.3803 25.2769C20.6508 25.2769 23.4831 27.5464 26.4841 27.5464C27.3557 27.4989 28.2083 27.2729 28.9891 26.8826C29.7699 26.4922 30.4622 25.9457 31.0232 25.2769V40.8259H30.8356C27.3469 32.8169 21.7762 27.0775 15.5679 27.0775C14.6998 27.0062 13.8265 27.1183 13.0046 27.4066C12.1828 27.6948 11.4308 28.1528 10.7975 28.7507C10.1642 29.3486 9.66379 30.0731 9.32879 30.8771C8.99379 31.681 8.8317 32.5465 8.85305 33.4171Z" fill="currentColor"/>
<path d="M55.5 62.5463C55.5 68.7547 56.0627 70.1802 59.6451 72.3372V72.5247H38.4504V72.2809C42.2016 70.1239 42.5955 68.6984 42.5955 62.49V36.6436C42.5955 30.3415 41.7327 28.5409 37.9814 26.3839V26.1963H55.5V62.5463Z" fill="currentColor"/>
<path d="M94.7019 12.2605C94.7019 6.03336 93.6703 4.15773 89.9002 2.07576V1.88818H107.606V62.2089C107.606 68.136 108.263 70.1241 111.939 72.2811V72.4687H94.7019V61.3649C93.0138 68.5111 88.0058 73.4253 80.6533 73.4253C70.9562 73.4253 63.041 64.4597 63.041 49.6796C63.041 34.8995 71.2376 25.1649 81.3286 25.1649C88.381 25.1649 93.0138 29.3101 94.7019 36.1V12.2605ZM94.7019 54.1061V44.2027C94.7019 34.8245 90.2754 29.4977 85.7551 29.4977C79.9968 29.4977 76.8833 37.0002 76.8833 49.5858C76.8833 61.1773 79.9968 68.0422 85.7551 68.0422C90.2754 68.0984 94.7019 62.9029 94.7019 54.1624V54.1061Z" fill="currentColor"/>
<path d="M155.285 47.3735H128.539C128.539 59.3401 133.528 66.974 141.912 66.974C147.276 66.974 152.003 63.9542 154.441 56.9768L155.098 57.1831C153.222 67.3491 146.526 73.4825 136.454 73.4825C124.956 73.4825 115.24 64.6107 115.24 49.4555C115.24 34.938 125.144 25.2222 136.548 25.2222C149.358 25.2222 155.285 34.6567 155.285 47.3735ZM142.85 45.2916C142.85 35.2193 142.006 27.0228 136.454 27.0228C131.84 27.0228 128.951 34.5254 128.632 45.2916H142.85Z" fill="currentColor"/>
<path d="M188.747 56.9755C187.903 66.3537 184.226 73.4812 175.092 73.4812C167.458 73.4812 162.45 68.8484 162.544 58.7762L162.638 28.6158H157.836V27.678C165.939 25.8023 172.166 19.3876 174.604 9.95312H175.467V26.1774H187.621L187.152 28.6158H175.467V58.9637C175.467 64.328 177.155 66.8789 180.55 66.8789C184.301 66.8789 186.871 63.3902 187.903 56.788L188.747 56.9755Z" fill="currentColor"/>
<path d="M208.816 26.1787H191.298V26.3663C195.049 28.5233 195.912 30.3239 195.912 36.6261V62.5475C195.912 68.7558 195.443 70.1813 191.767 72.3383V72.5259H212.962V72.2821C209.379 70.1251 208.816 68.6996 208.816 62.4912V26.1787Z" fill="currentColor"/>
<path d="M273.188 25.2222C281.572 25.2222 285.717 30.8491 285.717 39.8334V62.5475C285.717 68.7559 286.186 70.1814 289.862 72.3384V72.5259H268.742V72.2821C272.306 70.1251 272.794 68.6996 272.794 62.4912V39.8334C272.794 35.5007 271.65 31.9182 267.167 31.9182C262.684 31.9182 259.664 36.1572 259.664 44.6351V62.5475C259.664 68.7559 260.133 70.1814 263.716 72.3384V72.5259H242.483V72.2821C246.235 70.1251 246.629 68.6996 246.629 62.4912V39.8334C246.629 35.5007 245.503 31.9182 241.002 31.9182C236.5 31.9182 233.499 36.1572 233.499 44.6351V62.5475C233.499 68.7559 234.062 70.1814 237.644 72.3384V72.5259H216.356V72.2821C220.107 70.1251 220.501 68.6996 220.501 62.4912V36.6448C220.501 30.3427 219.657 28.542 215.887 26.3851V26.1975H233.424V37.3013C235.393 29.5737 240.289 25.2409 247.079 25.2409C254.431 25.2409 258.764 29.7612 259.514 37.3013C261.409 29.5549 266.398 25.2222 273.188 25.2222Z" fill="currentColor"/>
<path d="M333.022 47.3735H306.256C306.256 59.3401 311.264 66.974 319.648 66.974C325.013 66.974 329.72 63.9542 332.178 56.9768L332.834 57.1831C330.958 67.3491 324.262 73.4825 314.171 73.4825C302.674 73.4825 292.977 64.6107 292.977 49.4555C292.977 34.938 302.861 25.2222 314.265 25.2222C327.095 25.2222 333.022 34.6567 333.022 47.3735ZM320.586 45.2916C320.586 35.2193 319.742 27.0228 314.171 27.0228C309.557 27.0228 306.669 34.5254 306.35 45.2916H320.586Z" fill="currentColor"/>
<path d="M53.0443 18.1685C54.7939 18.1722 56.5052 17.6563 57.9613 16.6862C59.4174 15.7161 60.5526 14.3354 61.223 12.7193C61.8934 11.1032 62.0688 9.32438 61.727 7.60845C61.3852 5.89251 60.5416 4.31671 59.3031 3.08084C58.0646 1.84497 56.487 1.00471 54.7703 0.666565C53.0536 0.328417 51.2752 0.507619 49.6605 1.18147C48.0459 1.85532 46.6676 2.99344 45.7006 4.45157C44.7336 5.90969 44.2213 7.62215 44.2287 9.37179C44.0974 14.4173 41.4715 15.8615 37.9453 17.9435V18.1498L53.0443 18.1685Z" fill="#FF9213"/>
<path d="M197.806 18.1686C196.057 18.1686 194.348 17.6495 192.894 16.6771C191.44 15.7047 190.308 14.3228 189.641 12.7063C188.973 11.0899 188.8 9.31168 189.144 7.59698C189.488 5.88228 190.333 4.30822 191.572 3.07423C192.812 1.84024 194.389 1.00182 196.106 0.665198C197.822 0.328573 199.599 0.508905 201.213 1.18331C202.826 1.85771 204.203 2.99586 205.17 4.45358C206.136 5.9113 206.648 7.62299 206.64 9.37182C206.753 14.4173 209.379 15.8615 212.924 17.9435V18.1498L197.806 18.1686Z" fill="#FF9213"/>
</svg>
